<?xml version="1.0" standalone="no"?>
<!DOCTYPE svg PUBLIC "-//W3C//DTD SVG 1.1//EN"
  "http://www.w3.org/Graphics/SVG/1.1/DTD/svg11.dtd">
<svg width="27mm" height="56.999999999999986mm" viewBox="-45 -53.999999999999986 27 56.999999999999986" xmlns="http://www.w3.org/2000/svg" version="1.1">
	<title>svgOutput</title>
	<desc>made with tinkercad</desc>
<path d="M -19.011999130249023 -21.260000228881832 L -19 -21.075057983398434 L -19 -20.997999191284176 L -19 -0.00300000002607692 L -19 1.1102230246251565e-16 L -19 0.07435294240713129 L -19.011999130249023 0.2599999904632569 L -19.062999725341797 0.5170000195503235 L -19.148000717163086 0.7659999728202819 L -19.197999954223633 0.8672931194305419 L -19.263999938964844 1.0010000467300415 L -19.40999984741211 1.2200000286102295 L -19.58300018310547 1.4170000553131104 L -19.780000686645508 1.5900000333786006 L -19.999000549316406 1.7359999418258663 L -20.134733200073242 1.8029999732971187 L -20.233999252319336 1.851999998092651 L -20.479999542236328 1.9359759092330928 L -20.482999801635742 1.9370000362396236 L -20.739999771118164 1.9880000352859493 L -20.925647735595703 1.9999999999999996 L -21.003000259399414 1.9999999999999996 L -41.99800109863281 1.9999999999999996 L -42.07505798339844 1.9999999999999996 L -42.2599983215332 1.9880000352859493 L -42.516998291015625 1.9370000362396236 L -42.76599884033203 1.851999998092651 L -42.86526870727539 1.8029999732971187 L -43.000999450683594 1.7359999418258663 L -43.007999420166016 1.7313333749771114 L -43.220001220703125 1.5900000333786006 L -43.41699981689453 1.4170000553131104 L -43.538333892822266 1.278832197189331 L -43.54035949707031 1.2765260934829712 L -43.59000015258789 1.2200000286102295 L -43.736000061035156 1.0010000467300415 L -43.801998138427734 0.8672931194305419 L -43.85200119018555 0.7659999728202819 L -43.9370002746582 0.5170000195503235 L -43.987998962402344 0.2599999904632569 L -44 0.07435294240713129 L -44 1.1102230246251565e-16 L -44 -0.00300000002607692 L -44 -20.997999191284176 L -44 -21.075057983398434 L -43.987998962402344 -21.260000228881832 L -43.9370002746582 -21.517000198364254 L -43.85200119018555 -21.76600074768066 L -43.801998138427734 -21.8672924041748 L -43.736000061035156 -22.00099945068359 L -43.59000015258789 -22.21999931335449 L -43.54393005371094 -22.272460937499996 L -43.41699981689453 -22.416999816894528 L -43.220001220703125 -22.590000152587887 L -43.007999420166016 -22.73133277893066 L -43.000999450683594 -22.736000061035153 L -42.86729431152344 -22.802000045776364 L -42.76599884033203 -22.85199928283691 L -42.516998291015625 -22.9370002746582 L -42.2599983215332 -22.988000869750973 L -42.07505798339844 -22.999999999999996 L -41.99800109863281 -22.999999999999996 L -38.196998596191406 -22.999999999999996 L -24.80299949645996 -22.999999999999996 L -21.003000259399414 -22.999999999999996 L -20.925647735595703 -22.999999999999996 L -20.739999771118164 -22.988000869750973 L -20.482999801635742 -22.9370002746582 L -20.479999542236328 -22.93597602844238 L -20.233999252319336 -22.85199928283691 L -20.134733200073242 -22.802999496459957 L -19.999000549316406 -22.736000061035153 L -19.780000686645508 -22.590000152587887 L -19.58300018310547 -22.416999816894528 L -19.40999984741211 -22.21999931335449 L -19.263999938964844 -22.00099945068359 L -19.197999954223633 -21.8672924041748 L -19.148000717163086 -21.76600074768066 L -19.062999725341797 -21.517000198364254 L -19.011999130249023 -21.260000228881832 M -20.773574829101562 -21.48369216918945 L -21.003000259399414 -21.659448623657223 L -21.02981948852539 -21.67999458312988 L -21.199325561523438 -21.750204086303707 L -21.49757957458496 -21.873542785644528 L -21.49827766418457 -21.873830795288082 L -21.680068969726562 -21.89790344238281 L -22 -21.940610885620114 L -22.181791305541992 -21.916538238525387 L -22.501317977905273 -21.873886108398434 L -22.50172233581543 -21.873830795288082 L -22.671228408813477 -21.803621292114254 L -22.97018051147461 -21.67999458312988 L -23.115863800048828 -21.568412780761715 L -23.372051239013672 -21.372152328491207 L -23.372108459472656 -21.372108459472653 L -23.483692169189453 -21.226425170898434 L -23.65868377685547 -20.997999191284176 L -23.67985725402832 -20.97035980224609 L -23.679994583129883 -20.970180511474606 L -23.75020408630371 -20.80067443847656 L -23.873830795288086 -20.50247192382812 L -23.876806259155273 -20.479999542236325 L -23.897903442382812 -20.32068061828613 L -23.939746856689453 -20.000879287719723 L -23.939861297607422 -19.999999999999996 L -23.915790557861328 -19.818208694458004 L -23.873884201049805 -19.498678207397457 L -23.873830795288086 -19.498277664184567 L -23.803621292114258 -19.32877159118652 L -23.679994583129883 -19.029819488525387 L -23.56841278076172 -18.88413619995117 L -23.37215232849121 -18.627948760986325 L -23.372108459472656 -18.62789154052734 L -23.226425170898438 -18.516307830810543 L -22.97018051147461 -18.320005416870114 L -22.800674438476562 -18.249795913696286 L -22.501794815063477 -18.126197814941403 L -22.50172233581543 -18.12616920471191 L -22.319931030273438 -18.102348327636715 L -22 -18.060388565063473 L -21.818208694458008 -18.08420944213867 L -21.49867820739746 -18.12611579895019 L -21.49827766418457 -18.12616920471191 L -21.328771591186523 -18.19637870788574 L -21.02981948852539 -18.320005416870114 L -20.884136199951172 -18.431587219238278 L -20.627948760986328 -18.627847671508786 L -20.627891540527344 -18.62789154052734 L -20.516307830810547 -18.77357482910156 L -20.320005416870117 -19.029819488525387 L -20.24979591369629 -19.199325561523434 L -20.126197814941406 -19.49820518493652 L -20.126169204711914 -19.498277664184567 L -20.10234832763672 -19.68006896972656 L -20.060407638549805 -19.9998664855957 L -20.060388565063477 -19.999999999999996 L -20.084209442138672 -20.18179130554199 L -20.123228073120117 -20.479999542236325 L -20.126169204711914 -20.50247192382812 L -20.196378707885742 -20.67197799682617 L -20.320005416870117 -20.970180511474606 L -20.341312408447266 -20.997999191284176 L -20.43158721923828 -21.115863800048825 L -20.479999542236328 -21.1790599822998 L -20.62784767150879 -21.37205123901367 L -20.627891540527344 -21.372108459472653 L -20.773574829101562 -21.48369216918945 M -41.31993103027344 0.8979032635688781 L -41 0.940610647201538 L -40.81795883178711 0.916538894176483 L -40.49742126464844 0.8738508820533751 L -40.497276306152344 0.8738315105438231 L -40.32802200317383 0.8036221265792846 L -40.02981948852539 0.6799955368041992 L -39.88413619995117 0.5684127807617188 L -39.62794876098633 0.37215217947959905 L -39.627891540527344 0.372108668088913 L -39.51630783081055 0.22642423212528234 L -39.34284973144531 1.1102230246251565e-16 L -39.34054946899414 -0.00300000002607692 L -39.32014083862305 -0.02964080683886993 L -39.320003509521484 -0.02982003986835468 L -39.249794006347656 -0.19932551681995375 L -39.126373291015625 -0.49703449010848977 L -39.12616729736328 -0.49752792716026284 L -39.10209655761719 -0.6793200373649595 L -39.059391021728516 -0.9999999999999997 L -39.08346176147461 -1.1817921400070186 L -39.12611389160156 -1.5013189315795894 L -39.12616729736328 -1.5017228126525874 L -39.19637680053711 -1.6712282896041866 L -39.320003509521484 -1.9701799154281612 L -39.43158721923828 -2.115864515304565 L -39.62784957885742 -2.3720519542694087 L -39.627891540527344 -2.372108697891235 L -39.77357482910156 -2.4836914539337154 L -40.02981948852539 -2.6799955368041988 L -40.199073791503906 -2.750204801559448 L -40.497276306152344 -2.873831510543823 L -40.6793212890625 -2.897652626037597 L -40.959999084472656 -2.934376955032348 L -41 -2.9396107196807857 L -41.181793212890625 -2.9157896041870113 L -41.50172424316406 -2.873831510543823 L -41.671226501464844 -2.8036222457885738 L -41.968017578125 -2.6805813312530513 L -41.96942901611328 -2.6799955368041988 L -42.114864349365234 -2.5684127807617183 L -42.371856689453125 -2.372108697891235 L -42.48369216918945 -2.2264242172241206 L -42.679996490478516 -1.9701799154281612 L -42.750205993652344 -1.800674438476562 L -42.873802185058594 -1.501795649528503 L -42.87383270263672 -1.5017228126525874 L -42.89765167236328 -1.3199306726455684 L -42.93959426879883 -1.0001342296600337 L -42.93960952758789 -0.9999999999999997 L -42.91579055786133 -0.8182078599929806 L -42.87383270263672 -0.49752792716026284 L -42.80362319946289 -0.3280224204063414 L -42.68026351928711 -0.030466640368103863 L -42.679996490478516 -0.02982003986835468 L -42.65940856933594 -0.00300000002607692 L -42.6571044921875 1.1102230246251565e-16 L -42.56816101074219 0.11586440354585656 L -42.371856689453125 0.372108668088913 L -42.22642517089844 0.48369142413139343 L -41.99800109863281 0.6581729054450989 L -41.96961212158203 0.6798577308654785 L -41.96942901611328 0.6799955368041992 L -41.7999267578125 0.7502048611640929 L -41.502418518066406 0.873543083667755 L -41.50172424316406 0.8738315105438231 L -41.31993103027344 0.8979032635688781 M -21.02666664123535 0.675902783870697 L -21.003000259399414 0.6617022752761841 L -20.923221588134766 0.6138348579406738 L -20.921772003173828 0.6129655838012695 L -20.866357803344727 0.5718429684638977 L -20.768953323364258 0.4999147653579712 L -20.717802047729492 0.45377716422080994 L -20.6297550201416 0.3738012909889222 L -20.627891540527344 0.372108668088913 L -20.581754684448242 0.3209561407566071 L -20.500085830688477 0.23104585707187658 L -20.479999542236328 0.20397977530956274 L -20.45896339416504 0.17563061416149148 L -20.387033462524414 0.07822781801223765 L -20.351428985595703 0.0190513450652362 L -20.340051651000977 1.1102230246251565e-16 L -20.338260650634766 -0.00300000002607692 L -20.29059600830078 -0.08282377570867526 L -20.28923988342285 -0.08509471267461764 L -20.259902954101562 -0.1472801566123961 L -20.207454681396484 -0.257420241832733 L -20.18413543701172 -0.32236391305923445 L -20.144195556640625 -0.43478912115097024 L -20.1436767578125 -0.4362502396106718 L -20.126874923706055 -0.5031998753547666 L -20.09739875793457 -0.6196373105049131 L -20.096906661987305 -0.6215817332267759 L -20.086875915527344 -0.6897851228713987 L -20.068893432617188 -0.809665501117706 L -20.06563377380371 -0.878621160984039 L -20.060529708862305 -0.996758162975311 L -20.060388565063477 -0.9999999999999997 L -20.063648223876953 -1.0689556598663326 L -20.068893432617188 -1.1903344392776485 L -20.07892417907715 -1.258537888526916 L -20.096906661987305 -1.3784182071685787 L -20.113706588745117 -1.4451171159744258 L -20.142642974853516 -1.5586928129196163 L -20.1436767578125 -1.5627497434616084 L -20.166996002197266 -1.62769341468811 L -20.207454681396484 -1.7423290014266963 L -20.236793518066406 -1.8047652244567867 L -20.288137435913086 -1.9118564128875728 L -20.28923988342285 -1.914156079292297 L -20.324846267700195 -1.9733325242996211 L -20.36943244934082 -2.04800009727478 L -20.384777069091797 -2.073698282241821 L -20.387033462524414 -2.077478647232055 L -20.428157806396484 -2.132893800735473 L -20.479999542236328 -2.203637838363647 L -20.500085830688477 -2.2310459613800044 L -20.546222686767578 -2.2821984291076656 L -20.627891540527344 -2.372108697891235 L -20.679044723510742 -2.4182462692260738 L -20.767486572265625 -2.4978454113006587 L -20.768953323364258 -2.499165534973144 L -20.824369430541992 -2.5402882099151607 L -20.921772003173828 -2.612965583801269 L -20.98094940185547 -2.648321151733398 L -21.08278465270996 -2.7086954116821285 L -21.085844039916992 -2.710509061813354 L -21.14828109741211 -2.740097284317016 L -21.257671356201172 -2.792544841766357 L -21.322364807128906 -2.8158643245697017 L -21.43437957763672 -2.85539960861206 L -21.437000274658203 -2.856323957443237 L -21.503948211669922 -2.8731241226196285 L -21.62158203125 -2.9030942916870113 L -21.68978500366211 -2.913124084472656 L -21.808124542236328 -2.9301352500915523 L -21.80966567993164 -2.9303569793701167 L -21.87862205505371 -2.9336166381835933 L -22 -2.9396107196807857 L -22.06895637512207 -2.936351060867309 L -22.187942504882812 -2.930474996566772 L -22.19033432006836 -2.9303569793701167 L -22.25853729248047 -2.920326948165893 L -22.37841796875 -2.9030942916870113 L -22.44536781311035 -2.8862941265106197 L -22.527999877929688 -2.8652412891387935 L -22.558042526245117 -2.857587337493896 L -22.562999725341797 -2.856323957443237 L -22.62769317626953 -2.833004474639892 L -22.742328643798828 -2.792544841766357 L -22.804765701293945 -2.762956619262695 L -22.91474151611328 -2.7105870246887203 L -22.914905548095703 -2.710509061813354 L -22.97408103942871 -2.675153493881225 L -23.078227996826172 -2.612965583801269 L -23.133642196655273 -2.5718429088592525 L -23.23039436340332 -2.4996519088745113 L -23.231046676635742 -2.499165534973144 L -23.282197952270508 -2.453027963638305 L -23.370323181152344 -2.3737161159515376 L -23.372108459472656 -2.372108697891235 L -23.418245315551758 -2.3209562301635738 L -23.499914169311523 -2.2310459613800044 L -23.54103660583496 -2.1756305694580074 L -23.612966537475586 -2.077478647232055 L -23.63070297241211 -2.04800009727478 L -23.648571014404297 -2.018302202224731 L -23.707727432250977 -1.919235229492187 L -23.71076011657715 -1.914156079292297 L -23.740097045898438 -1.8517198562622066 L -23.792545318603516 -1.7423290014266963 L -23.81586456298828 -1.6773853302001949 L -23.855628967285156 -1.56471836566925 L -23.8563232421875 -1.5627497434616084 L -23.873125076293945 -1.4960508346557613 L -23.902606964111328 -1.3803328275680538 L -23.903093338012695 -1.3784182071685787 L -23.913124084472656 -1.3102148771286006 L -23.931106567382812 -1.1903344392776485 L -23.934616088867188 -1.121378898620605 L -23.93959617614746 -1.0061433315277095 L -23.939861297607422 -0.9999999999999997 L -23.936351776123047 -0.9310443401336667 L -23.931106567382812 -0.809665501117706 L -23.92107582092285 -0.7414621114730833 L -23.903093338012695 -0.6215817332267759 L -23.886293411254883 -0.5546321272850034 L -23.856937408447266 -0.4386738836765287 L -23.8563232421875 -0.4362502396106718 L -23.833003997802734 -0.37130656838417037 L -23.792545318603516 -0.257420241832733 L -23.763206481933594 -0.19523479044437392 L -23.711824417114258 -0.08733226358890521 L -23.71076011657715 -0.08509471267461764 L -23.675153732299805 -0.02591824531555164 L -23.661468505859375 -0.00300000002607692 L -23.659677505493164 1.1102230246251565e-16 L -23.613813400268555 0.07680854946374903 L -23.612966537475586 0.07822781801223765 L -23.571842193603516 0.13364307582378396 L -23.499914169311523 0.23104585707187658 L -23.453777313232422 0.2821983993053437 L -23.373802185058594 0.3702452480793 L -23.372108459472656 0.372108668088913 L -23.320955276489258 0.4182462692260742 L -23.231046676635742 0.4999147653579712 L -23.175630569458008 0.541037380695343 L -23.079383850097656 0.6121115684509277 L -23.078227996826172 0.6129655838012695 L -23.01905059814453 0.648571789264679 L -22.914905548095703 0.7115089893341064 L -22.852468490600586 0.7408464550971985 L -22.742328643798828 0.7925448417663573 L -22.677635192871094 0.8158643841743468 L -22.56562042236328 0.8553994894027709 L -22.562999725341797 0.856324017047882 L -22.527999877929688 0.8651069402694701 L -22.496051788330078 0.8731241226196288 L -22.380332946777344 0.902606427669525 L -22.37841796875 0.9030942320823668 L -22.31021499633789 0.9131241440773009 L -22.19033432006836 0.9311062097549437 L -22.12137794494629 0.9346166253089904 L -22.001066207885742 0.9405580163002013 L -22 0.940610647201538 L -21.93104362487793 0.9371001720428466 L -21.80966567993164 0.9311062097549437 L -21.74146270751953 0.9210762977600097 L -21.62158203125 0.9030942320823668 L -21.55463218688965 0.88629412651062 L -21.441957473754883 0.8575873374938964 L -21.437000274658203 0.856324017047882 L -21.37230682373047 0.8330044746398925 L -21.257671356201172 0.7925448417663573 L -21.195234298706055 0.7632073760032653 L -21.086631774902344 0.7118810415267944 L -21.085844039916992 0.7115089893341064 L -21.02666664123535 0.675902783870697 M -41.31993103027344 -18.102096557617184 L -41 -18.05938911437988 L -40.81795883178711 -18.083461761474606 L -40.49742126464844 -18.12614822387695 L -40.497276306152344 -18.12616920471191 L -40.32802200317383 -18.19637870788574 L -40.02981948852539 -18.320005416870114 L -39.88413619995117 -18.431587219238278 L -39.62794876098633 -18.627847671508786 L -39.627891540527344 -18.62789154052734 L -39.51630783081055 -18.77357482910156 L -39.32014083862305 -19.029640197753903 L -39.320003509521484 -19.029819488525387 L -39.249794006347656 -19.199325561523434 L -39.126373291015625 -19.497034072875973 L -39.12616729736328 -19.49752807617187 L -39.10209655761719 -19.679319381713864 L -39.059391021728516 -19.999999999999996 L -39.08346176147461 -20.18179130554199 L -39.123268127441406 -20.479999542236325 L -39.12611389160156 -20.50131797790527 L -39.12616729736328 -20.501722335815426 L -39.19637680053711 -20.671228408813473 L -39.320003509521484 -20.970180511474606 L -39.341312408447266 -20.997999191284176 L -39.43158721923828 -21.115863800048825 L -39.62784957885742 -21.37205123901367 L -39.627891540527344 -21.372108459472653 L -39.77357482910156 -21.48369216918945 L -40.02981948852539 -21.67999458312988 L -40.199073791503906 -21.750204086303707 L -40.497276306152344 -21.873830795288082 L -40.6793212890625 -21.897651672363278 L -41 -21.93961143493652 L -41.181793212890625 -21.915790557861325 L -41.50172424316406 -21.873830795288082 L -41.671226501464844 -21.803621292114254 L -41.968017578125 -21.680582046508786 L -41.96942901611328 -21.67999458312988 L -41.99800109863281 -21.658075332641598 L -42.114864349365234 -21.568412780761715 L -42.371856689453125 -21.372108459472653 L -42.48369216918945 -21.226425170898434 L -42.65868377685547 -20.997999191284176 L -42.679996490478516 -20.970180511474606 L -42.750205993652344 -20.80067443847656 L -42.87383270263672 -20.501722335815426 L -42.876678466796875 -20.479999542236325 L -42.89765167236328 -20.319931030273434 L -42.93959426879883 -20.000133514404293 L -42.93960952758789 -19.999999999999996 L -42.91579055786133 -19.818208694458004 L -42.87383270263672 -19.49752807617187 L -42.80362319946289 -19.328022003173825 L -42.68026351928711 -19.03046607971191 L -42.679996490478516 -19.029819488525387 L -42.56816101074219 -18.88413619995117 L -42.371856689453125 -18.62789154052734 L -42.22642517089844 -18.516307830810543 L -41.96961212158203 -18.320142745971676 L -41.96942901611328 -18.320005416870114 L -41.7999267578125 -18.249795913696286 L -41.502418518066406 -18.126457214355465 L -41.50172424316406 -18.12616920471191 L -41.31993103027344 -18.102096557617184 M -19.148000717163086 -29.23399925231933 L -19.263999938964844 -28.9990005493164 L -19.40999984741211 -28.7800006866455 L -19.50484275817871 -28.67200088500976 L -19.58300018310547 -28.58300018310546 L -19.780000686645508 -28.409999847412102 L -19.999000549316406 -28.263999938964837 L -20.132707595825195 -28.197999954223626 L -20.233999252319336 -28.14800071716308 L -20.482999801635742 -28.06299972534179 L -20.739999771118164 -28.011999130249016 L -20.925647735595703 -27.999999999999993 L -21.003000259399414 -27.999999999999993 L -41.99800109863281 -27.999999999999993 L -42.07505798339844 -27.999999999999993 L -42.2599983215332 -28.011999130249016 L -42.516998291015625 -28.06299972534179 L -42.76599884033203 -28.14800071716308 L -42.86729431152344 -28.197999954223626 L -43.000999450683594 -28.263999938964837 L -43.220001220703125 -28.409999847412102 L -43.22114944458008 -28.411010742187493 L -43.41699981689453 -28.58300018310546 L -43.49515914916992 -28.67200088500976 L -43.59000015258789 -28.7800006866455 L -43.736000061035156 -28.9990005493164 L -43.74399948120117 -29.015207290649407 L -43.85200119018555 -29.23399925231933 L -43.9370002746582 -29.482999801635735 L -43.987998962402344 -29.739999771118157 L -44 -29.925647735595696 L -44 -30.003000259399407 L -44 -50.9980010986328 L -44 -51.07505798339842 L -43.99189376831055 -51.20000076293944 L -43.987998962402344 -51.25999832153319 L -43.9370002746582 -51.51699829101561 L -43.85200119018555 -51.76599884033202 L -43.74399948120117 -51.984794616699205 L -43.736000061035156 -52.00099945068358 L -43.59000015258789 -52.22000122070311 L -43.41699981689453 -52.41699981689452 L -43.220001220703125 -52.590000152587876 L -43.007999420166016 -52.73133468627928 L -43.000999450683594 -52.73600006103514 L -42.86526870727539 -52.80300140380858 L -42.76599884033203 -52.85200119018553 L -42.516998291015625 -52.93700027465819 L -42.2599983215332 -52.98799896240233 L -42.07505798339844 -52.999999999999986 L -41.99800109863281 -52.999999999999986 L -38.138999938964844 -52.999999999999986 L -37.00299835205078 -52.999999999999986 L -31.398000717163086 -52.999999999999986 L -30.003000259399414 -52.999999999999986 L -24.7450008392334 -52.999999999999986 L -21.003000259399414 -52.999999999999986 L -20.925647735595703 -52.999999999999986 L -20.739999771118164 -52.98799896240233 L -20.482999801635742 -52.93700027465819 L -20.479999542236328 -52.935974121093736 L -20.233999252319336 -52.85200119018553 L -20.134733200073242 -52.80300140380858 L -19.999000549316406 -52.73600006103514 L -19.780000686645508 -52.590000152587876 L -19.58300018310547 -52.41699981689452 L -19.40999984741211 -52.22000122070311 L -19.263999938964844 -52.00099945068358 L -19.148000717163086 -51.76599884033202 L -19.139999389648438 -51.74256515502928 L -19.062999725341797 -51.51699829101561 L -19.011999130249023 -51.25999832153319 L -19.008106231689453 -51.20000076293944 L -19 -51.07505798339842 L -19 -50.9980010986328 L -19 -47.19800186157226 L -19 -30.003000259399407 L -19 -29.925647735595696 L -19.011999130249023 -29.739999771118157 L -19.062999725341797 -29.482999801635735 L -19.139999389648438 -29.257434844970696 L -19.148000717163086 -29.23399925231933 M -20.523754119873047 -29.679044723510735 L -20.508352279663086 -29.695999145507805 L -20.479999542236328 -29.727212905883782 L -20.44208526611328 -29.76895332336425 L -20.400962829589844 -29.824369430541985 L -20.32903480529785 -29.92177200317382 L -20.293428421020508 -29.98094940185546 L -20.28035545349121 -30.003000259399407 L -20.234365463256836 -30.080574035644524 L -20.23124122619629 -30.085844039916985 L -20.201902389526367 -30.148281097412102 L -20.149456024169922 -30.257671356201165 L -20.126134872436523 -30.3223648071289 L -20.08660125732422 -30.43437957763671 L -20.085676193237305 -30.437000274658196 L -20.068876266479492 -30.503948211669915 L -20.03939437866211 -30.61966705322265 L -20.03890609741211 -30.621582031249993 L -20.02887535095215 -30.689785003662102 L -20.024343490600586 -30.719999313354485 L -20.010892868041992 -30.809665679931634 L -20.007633209228516 -30.878622055053704 L -20.00252914428711 -30.99675750732421 L -20.002389907836914 -30.999999999999993 L -20.00564956665039 -31.068956375122063 L -20.010892868041992 -31.190334320068352 L -20.020923614501953 -31.25853729248046 L -20.03890609741211 -31.378417968749993 L -20.055706024169922 -31.445367813110344 L -20.084413528442383 -31.55804252624511 L -20.085676193237305 -31.56299972534179 L -20.10899543762207 -31.627693176269524 L -20.149456024169922 -31.74232864379882 L -20.17879295349121 -31.804765701293938 L -20.230175018310547 -31.912668228149407 L -20.23124122619629 -31.914905548095696 L -20.266845703125 -31.974081039428704 L -20.32818603515625 -32.07680892944335 L -20.32903480529785 -32.078227996826165 L -20.37015724182129 -32.1336441040039 L -20.44208526611328 -32.2310447692871 L -20.479999542236328 -32.27308273315429 L -20.488222122192383 -32.28219985961913 L -20.568199157714844 -32.370246887207024 L -20.56989097595215 -32.37210845947265 L -20.621044158935547 -32.41824722290038 L -20.710954666137695 -32.49991607666015 L -20.766368865966797 -32.54103851318359 L -20.863771438598633 -32.612964630126946 L -20.922948837280273 -32.64857101440429 L -21.003000259399414 -32.69602966308593 L -21.022573471069336 -32.70763397216796 L -21.027843475341797 -32.71075820922851 L -21.090280532836914 -32.74009704589843 L -21.14847755432129 -32.76800155639648 L -21.199670791625977 -32.79254531860351 L -21.26436424255371 -32.815864562988274 L -21.376380920410156 -32.85540008544921 L -21.378999710083008 -32.85632324218749 L -21.44594955444336 -32.873123168945305 L -21.56166648864746 -32.90260696411132 L -21.563581466674805 -32.90309524536132 L -21.631784439086914 -32.91312408447265 L -21.751665115356445 -32.931106567382805 L -21.820621490478516 -32.93461608886718 L -21.935855865478516 -32.93959426879882 L -21.941999435424805 -32.939861297607415 L -22.010955810546875 -32.93635177612304 L -22.132333755493164 -32.931106567382805 L -22.200538635253906 -32.92107772827148 L -22.320417404174805 -32.90309524536132 L -22.387367248535156 -32.88629531860351 L -22.505001068115234 -32.85632324218749 L -22.527999877929688 -32.84803390502929 L -22.569692611694336 -32.83300399780273 L -22.684328079223633 -32.79254531860351 L -22.73656463623047 -32.76800155639648 L -22.74676513671875 -32.76320648193359 L -22.85466766357422 -32.71182632446288 L -22.856904983520508 -32.71075820922851 L -22.91608238220215 -32.675151824951165 L -23.018808364868164 -32.613811492919915 L -23.020227432250977 -32.612964630126946 L -23.07564353942871 -32.57184219360351 L -23.173046112060547 -32.49991607666015 L -23.224199295043945 -32.453777313232415 L -23.312244415283203 -32.37380218505859 L -23.31410789489746 -32.37210845947265 L -23.360246658325195 -32.32095718383788 L -23.44191551208496 -32.2310447692871 L -23.4830379486084 -32.17563247680663 L -23.55496597290039 -32.078227996826165 L -23.590572357177734 -32.019050598144524 L -23.650814056396484 -31.91816329956054 L -23.652759552001953 -31.914905548095696 L -23.682096481323242 -31.85246849060058 L -23.73454475402832 -31.74232864379882 L -23.757863998413086 -31.677635192871087 L -23.797399520874023 -31.565620422363274 L -23.798324584960938 -31.56299972534179 L -23.81512451171875 -31.49605178833007 L -23.844606399536133 -31.380332946777337 L -23.845094680786133 -31.378417968749993 L -23.85512351989746 -31.310214996337884 L -23.873106002807617 -31.190334320068352 L -23.876617431640625 -31.121377944946282 L -23.881595611572266 -31.006143569946282 L -23.881860733032227 -30.999999999999993 L -23.87835121154785 -30.931043624877923 L -23.873106002807617 -30.809665679931634 L -23.86307716369629 -30.741462707519524 L -23.8598575592041 -30.719999313354485 L -23.845094680786133 -30.621582031249993 L -23.82829475402832 -30.55463218688964 L -23.79958724975586 -30.441957473754876 L -23.798324584960938 -30.437000274658196 L -23.775005340576172 -30.37230682373046 L -23.73454475402832 -30.257671356201165 L -23.70520782470703 -30.195234298706048 L -23.654970169067383 -30.090456008911126 L -23.652759552001953 -30.085844039916985 L -23.61715316772461 -30.026666641235344 L -23.60312271118164 -30.003000259399407 L -23.555782318115234 -29.92314910888671 L -23.55496597290039 -29.92177200317382 L -23.513843536376953 -29.86635780334472 L -23.44191551208496 -29.76895332336425 L -23.395776748657227 -29.717802047729485 L -23.3158016204834 -29.629755020141594 L -23.31410789489746 -29.627891540527337 L -23.262956619262695 -29.581754684448235 L -23.173046112060547 -29.50008583068847 L -23.117630004882812 -29.458963394165032 L -23.020227432250977 -29.387033462524407 L -22.96105194091797 -29.351428985595696 L -22.86016273498535 -29.291185379028313 L -22.856904983520508 -29.289239883422844 L -22.794469833374023 -29.259902954101555 L -22.684328079223633 -29.207454681396477 L -22.61963653564453 -29.18413543701171 L -22.527999877929688 -29.15179252624511 L -22.507619857788086 -29.144599914550774 L -22.505001068115234 -29.143676757812493 L -22.438051223754883 -29.126874923706048 L -22.32233238220215 -29.097393035888665 L -22.320417404174805 -29.096906661987298 L -22.252214431762695 -29.086875915527337 L -22.132333755493164 -29.06889343261718 L -22.063379287719727 -29.065633773803704 L -21.945241928100586 -29.060529708862298 L -21.941999435424805 -29.06038856506347 L -21.873044967651367 -29.063648223876946 L -21.751665115356445 -29.06889343261718 L -21.683462142944336 -29.07892417907714 L -21.563581466674805 -29.096906661987298 L -21.496631622314453 -29.11370658874511 L -21.38395881652832 -29.142412185668938 L -21.378999710083008 -29.143676757812493 L -21.314306259155273 -29.16699600219726 L -21.199670791625977 -29.207454681396477 L -21.137235641479492 -29.2367935180664 L -21.032455444335938 -29.287029266357415 L -21.027843475341797 -29.289239883422844 L -21.003000259399414 -29.30418968200683 L -20.96866798400879 -29.324846267700188 L -20.865150451660156 -29.386217117309563 L -20.863771438598633 -29.387033462524407 L -20.80835723876953 -29.428157806396477 L -20.710954666137695 -29.50008583068847 L -20.659801483154297 -29.54622268676757 L -20.571754455566406 -29.6261978149414 L -20.56989097595215 -29.627891540527337 L -20.523754119873047 -29.679044723510735 M -20.044347763061523 -49.68006896972655 L -20.002389907836914 -49.999992370605455 L -20.002389907836914 -49.999999999999986 L -20.02621078491211 -50.182041168212876 L -20.06816864013672 -50.50272369384764 L -20.138378143310547 -50.67222976684569 L -20.26180648803711 -50.96995162963866 L -20.262004852294922 -50.970432281494126 L -20.283157348632812 -50.9980010986328 L -20.373586654663086 -51.115863800048814 L -20.43804168701172 -51.20000076293944 L -20.479999542236328 -51.25476837158202 L -20.569847106933594 -51.37205123901366 L -20.56989097595215 -51.37210845947264 L -20.715576171875 -51.48369216918944 L -20.971820831298828 -51.6799964904785 L -21.003000259399414 -51.69290924072264 L -21.141324996948242 -51.75020599365233 L -21.439579010009766 -51.87354278564452 L -21.440277099609375 -51.873832702636705 L -21.622068405151367 -51.8979034423828 L -21.941999435424805 -51.94060897827147 L -22.12379264831543 -51.916538238525376 L -22.44331932067871 -51.87388610839842 L -22.443723678588867 -51.873832702636705 L -22.61322784423828 -51.803623199462876 L -22.912179946899414 -51.6799964904785 L -23.057865142822266 -51.568412780761705 L -23.31410789489746 -51.37210845947264 L -23.425691604614258 -51.22667312622069 L -23.621858596801758 -50.97061157226561 L -23.62199592590332 -50.970432281494126 L -23.69220542907715 -50.80092620849608 L -23.815832138061523 -50.50272369384764 L -23.839902877807617 -50.320678710937486 L -23.881746292114258 -50.00087738037108 L -23.881860733032227 -49.999999999999986 L -23.857789993286133 -49.81820678710936 L -23.815832138061523 -49.49827575683592 L -23.745622634887695 -49.32877349853514 L -23.67233657836914 -49.15200042724608 L -23.622581481933594 -49.031982421874986 L -23.62199592590332 -49.030570983886705 L -23.510412216186523 -48.88513565063475 L -23.31410789489746 -48.62814331054686 L -23.168424606323242 -48.51630783081053 L -22.912179946899414 -48.32000350952147 L -22.742673873901367 -48.24979400634764 L -22.443796157836914 -48.12619781494139 L -22.443723678588867 -48.12616729736327 L -22.261930465698242 -48.102348327636705 L -21.941999435424805 -48.060390472412095 L -21.760208129882812 -48.08420944213866 L -21.440677642822266 -48.126117706298814 L -21.440277099609375 -48.12616729736327 L -21.270771026611328 -48.196376800537095 L -21.003000259399414 -48.30710983276366 L -20.97246551513672 -48.319736480712876 L -20.971820831298828 -48.32000350952147 L -20.826135635375977 -48.4318389892578 L -20.56989097595215 -48.62814331054686 L -20.458309173583984 -48.77357482910155 L -20.262004852294922 -49.030570983886705 L -20.211708068847656 -49.15200042724608 L -20.191795349121094 -49.200073242187486 L -20.068199157714844 -49.498203277587876 L -20.06816864013672 -49.49827575683592 L -20.044347763061523 -49.68006896972655 M -41.261932373046875 -29.10234832763671 L -40.959999084472656 -29.06274986267089 L -40.94200897216797 -29.060390472412102 L -40.94200134277344 -29.06038856506347 L -40.75995635986328 -29.084209442138665 L -40.43927764892578 -29.126169204711907 L -40.269771575927734 -29.196378707885735 L -39.972049713134766 -29.319805145263665 L -39.9715690612793 -29.32000541687011 L -39.826133728027344 -29.431587219238274 L -39.5699462890625 -29.627847671508782 L -39.56989288330078 -29.627891540527337 L -39.458309173583984 -29.773574829101555 L -39.28255081176758 -30.003000259399407 L -39.26200485229492 -30.029819488525384 L -39.191795349121094 -30.19932556152343 L -39.068458557128906 -30.497579574584954 L -39.06816864013672 -30.498277664184563 L -39.044097900390625 -30.680068969726555 L -39.00138854980469 -30.999999999999993 L -39.02545928955078 -31.181791305541985 L -39.068115234375 -31.501317977905266 L -39.06816864013672 -31.501722335815423 L -39.13837814331055 -31.67122840881347 L -39.26200485229492 -31.970180511474602 L -39.37358856201172 -32.11586380004882 L -39.56989288330078 -32.37210845947265 L -39.71532440185547 -32.483692169189446 L -39.97138977050781 -32.679859161376946 L -39.9715690612793 -32.67999649047851 L -40.141075134277344 -32.75020599365234 L -40.183998107910156 -32.76800155639648 L -40.43927764892578 -32.87383270263671 L -40.62131881713867 -32.897903442382805 L -40.94112014770508 -32.939746856689446 L -40.94200134277344 -32.939861297607415 L -41.1237907409668 -32.91579055786132 L -41.443721771240234 -32.87383270263671 L -41.61322784423828 -32.80362319946288 L -41.699153900146484 -32.76800155639648 L -41.91001892089844 -32.68058013916015 L -41.91143035888672 -32.67999649047851 L -41.99800109863281 -32.613574981689446 L -42.05686569213867 -32.56841278076171 L -42.31385803222656 -32.37210845947265 L -42.425689697265625 -32.22642517089843 L -42.62199401855469 -31.970180511474602 L -42.692203521728516 -31.800674438476555 L -42.815799713134766 -31.50179481506347 L -42.81583023071289 -31.501722335815423 L -42.83965301513672 -31.31993103027343 L -42.88161087036133 -30.999999999999993 L -42.8577880859375 -30.818208694458 L -42.81588363647461 -30.498678207397454 L -42.81583023071289 -30.498277664184563 L -42.74562072753906 -30.328771591186516 L -42.62226104736328 -30.030464172363274 L -42.62199401855469 -30.029819488525384 L -42.60140609741211 -30.003000259399407 L -42.510162353515625 -29.884136199951165 L -42.31385803222656 -29.627891540527337 L -42.16842269897461 -29.51630783081054 L -41.99800109863281 -29.386129379272454 L -41.9116096496582 -29.320142745971673 L -41.91143035888672 -29.32000541687011 L -41.74192428588867 -29.249795913696282 L -41.44379425048828 -29.1261978149414 L -41.443721771240234 -29.126169204711907 L -41.261932373046875 -29.10234832763671 M -42.74562072753906 -49.32877349853514 L -42.67251968383789 -49.15200042724608 L -42.62226104736328 -49.03046417236327 L -42.62199401855469 -49.029819488525376 L -42.510162353515625 -48.88413619995116 L -42.31385803222656 -48.62789154052733 L -42.16842269897461 -48.51630783081053 L -41.99800109863281 -48.38613128662108 L -41.9116096496582 -48.32014083862303 L -41.91143035888672 -48.32000350952147 L -41.74192428588867 -48.24979400634764 L -41.44379425048828 -48.12619781494139 L -41.443721771240234 -48.12616729736327 L -41.261932373046875 -48.102348327636705 L -40.94200897216797 -48.060390472412095 L -40.94200134277344 -48.060390472412095 L -40.75995635986328 -48.08420944213866 L -40.43927764892578 -48.12616729736327 L -40.269771575927734 -48.196376800537095 L -39.972049713134766 -48.31980514526366 L -39.9715690612793 -48.32000350952147 L -39.826133728027344 -48.43158721923827 L -39.5699462890625 -48.62784957885741 L -39.56989288330078 -48.62789154052733 L -39.458309173583984 -48.77357482910155 L -39.26200485229492 -49.029819488525376 L -39.21139907836914 -49.15200042724608 L -39.191795349121094 -49.19932556152342 L -39.068458557128906 -49.497577667236314 L -39.06816864013672 -49.49827575683592 L -39.044097900390625 -49.68006896972655 L -39.00138854980469 -49.999999999999986 L -39.02545928955078 -50.18179321289061 L -39.068115234375 -50.50131988525389 L -39.06816864013672 -50.50172424316405 L -39.13837814331055 -50.67122650146483 L -39.26200485229492 -50.970180511474595 L -39.37358856201172 -51.115863800048814 L -39.56989288330078 -51.37210845947264 L -39.71532440185547 -51.48369216918944 L -39.97138977050781 -51.67985916137694 L -39.9715690612793 -51.6799964904785 L -40.141075134277344 -51.75020599365233 L -40.43927764892578 -51.873832702636705 L -40.62131881713867 -51.8979034423828 L -40.94112014770508 -51.93974685668944 L -40.94200134277344 -51.93986129760741 L -40.959999084472656 -51.93747711181639 L -41.1237907409668 -51.915790557861314 L -41.443721771240234 -51.873832702636705 L -41.61322784423828 -51.803623199462876 L -41.91001892089844 -51.68058013916014 L -41.91143035888672 -51.6799964904785 L -41.99800109863281 -51.61357498168944 L -42.05686569213867 -51.568412780761705 L -42.31385803222656 -51.37210845947264 L -42.425689697265625 -51.22642517089842 L -42.4459342956543 -51.20000076293944 L -42.60068130493164 -50.9980010986328 L -42.62199401855469 -50.970180511474595 L -42.692203521728516 -50.80067443847655 L -42.815799713134766 -50.501796722412095 L -42.81583023071289 -50.50172424316405 L -42.83965301513672 -50.31993103027342 L -42.88161087036133 -49.999999999999986 L -42.8577880859375 -49.81820678710936 L -42.81588363647461 -49.498676300048814 L -42.81583023071289 -49.49827575683592 L -42.74562072753906 -49.32877349853514 M -33.75199890136719 -6.727000236511229 L -33.698001861572266 -7.063600063323973 L -33.698001861572266 -7.1009998321533185 L -33.698001861572266 -13.899000167846676 L -33.698001861572266 -13.93640041351318 L -33.75199890136719 -14.272999763488766 L -33.92300033569336 -14.609000205993649 L -34.191001892089844 -14.8769998550415 L -34.52799987792969 -15.048000335693356 L -34.816001892089844 -15.09420299530029 L -34.87083435058594 -15.10299968719482 L -34.902000427246094 -15.10299968719482 L -35.79800033569336 -15.10299968719482 L -35.829166412353516 -15.10299968719482 L -36.172000885009766 -15.048000335693356 L -36.50899887084961 -14.8769998550415 L -36.777000427246094 -14.609000205993649 L -36.86399841308594 -14.438052177429196 L -36.948001861572266 -14.272999763488766 L -37.00299835205078 -13.930166244506832 L -37.00299835205078 -13.899000167846676 L -37.00299835205078 -7.1009998321533185 L -37.00299835205078 -7.069833278656004 L -36.948001861572266 -6.727000236511229 L -36.86399841308594 -6.561947345733641 L -36.777000427246094 -6.390999794006346 L -36.50899887084961 -6.123000144958494 L -36.172000885009766 -5.952000141143798 L -35.83539962768555 -5.897999763488769 L -35.79800033569336 -5.897999763488769 L -34.902000427246094 -5.897999763488769 L -34.864601135253906 -5.897999763488769 L -34.816001892089844 -5.905797004699706 L -34.52799987792969 -5.952000141143798 L -34.191001892089844 -6.123000144958494 L -33.92300033569336 -6.390999794006346 L -33.75199890136719 -6.727000236511229 M -36.87099838256836 -44.6339988708496 L -36.86399841308594 -44.61639404296874 L -36.74100112915039 -44.30699920654296 L -36.57099914550781 -43.998001098632805 L -36.36399841308594 -43.71400070190429 L -36.12200164794922 -43.45700073242187 L -35.85100173950195 -43.23300170898437 L -35.553001403808594 -43.04399871826171 L -35.23400115966797 -42.89400100708007 L -34.89799880981445 -42.785999298095696 L -34.551998138427734 -42.72000122070312 L -34.20000076293945 -42.69800186157226 L -33.847999572753906 -42.72000122070312 L -33.50199890136719 -42.785999298095696 L -33.16600036621094 -42.89400100708007 L -32.84700012207031 -43.04399871826171 L -32.768001556396484 -43.094104766845696 L -32.54899978637695 -43.23300170898437 L -32.27799987792969 -43.45700073242187 L -32.0359992980957 -43.71400070190429 L -31.82900047302246 -43.998001098632805 L -31.659000396728516 -44.30699920654296 L -31.52899932861328 -44.6339988708496 L -31.441999435424805 -44.97499847412109 L -31.431787490844727 -45.05599975585937 L -31.398000717163086 -45.32400131225585 L -31.398000717163086 -45.67599868774413 L -31.441999435424805 -46.0250015258789 L -31.52899932861328 -46.36600112915038 L -31.659000396728516 -46.693000793457024 L -31.82900047302246 -47.00199890136718 L -32.0359992980957 -47.285999298095696 L -32.27799987792969 -47.54299926757812 L -32.54899978637695 -47.76699829101562 L -32.768001556396484 -47.90589523315429 L -32.84700012207031 -47.956001281738274 L -33.16600036621094 -48.10599899291991 L -33.50199890136719 -48.21400070190428 L -33.847999572753906 -48.27999877929686 L -34.20000076293945 -48.30300140380858 L -34.551998138427734 -48.27999877929686 L -34.89799880981445 -48.21400070190428 L -35.23400115966797 -48.10599899291991 L -35.553001403808594 -47.956001281738274 L -35.85100173950195 -47.76699829101562 L -36.12200164794922 -47.54299926757812 L -36.36399841308594 -47.285999298095696 L -36.57099914550781 -47.00199890136718 L -36.74100112915039 -46.693000793457024 L -36.86399841308594 -46.38360595703124 L -36.87099838256836 -46.36600112915038 L -36.95800018310547 -46.0250015258789 L -37.00299835205078 -45.67599868774413 L -37.00299835205078 -45.32400131225585 L -36.96844482421875 -45.05599975585937 L -36.95800018310547 -44.97499847412109 L -36.87099838256836 -44.6339988708496 M -34.551998138427734 -32.72000122070312 L -34.20000076293945 -32.69800186157226 L -33.847999572753906 -32.72000122070312 L -33.59636306762695 -32.76800155639648 L -33.50199890136719 -32.785999298095696 L -33.16600036621094 -32.89400100708007 L -32.84700012207031 -33.04399871826171 L -32.768001556396484 -33.094104766845696 L -32.54899978637695 -33.23300170898437 L -32.27799987792969 -33.45700073242187 L -32.0359992980957 -33.71400070190429 L -31.82900047302246 -33.998001098632805 L -31.659000396728516 -34.30699920654296 L -31.52899932861328 -34.6339988708496 L -31.441999435424805 -34.97499847412109 L -31.398000717163086 -35.32400131225585 L -31.398000717163086 -35.67599868774413 L -31.441999435424805 -36.0250015258789 L -31.52899932861328 -36.36600112915038 L -31.659000396728516 -36.693000793457024 L -31.82900047302246 -37.00199890136718 L -32.0359992980957 -37.285999298095696 L -32.27799987792969 -37.54299926757812 L -32.54899978637695 -37.76699829101562 L -32.768001556396484 -37.90589523315429 L -32.84700012207031 -37.956001281738274 L -33.16600036621094 -38.105998992919915 L -33.50199890136719 -38.21400070190429 L -33.847999572753906 -38.27999877929687 L -34.20000076293945 -38.30300140380859 L -34.551998138427734 -38.27999877929687 L -34.89799880981445 -38.21400070190429 L -35.23400115966797 -38.105998992919915 L -35.553001403808594 -37.956001281738274 L -35.85100173950195 -37.76699829101562 L -36.12200164794922 -37.54299926757812 L -36.36399841308594 -37.285999298095696 L -36.57099914550781 -37.00199890136718 L -36.64692306518555 -36.86399841308593 L -36.74100112915039 -36.693000793457024 L -36.86399841308594 -36.38360595703124 L -36.87099838256836 -36.36600112915038 L -36.95800018310547 -36.0250015258789 L -37.00299835205078 -35.67599868774413 L -37.00299835205078 -35.32400131225585 L -36.95800018310547 -34.97499847412109 L -36.87099838256836 -34.6339988708496 L -36.86399841308594 -34.61639404296874 L -36.74100112915039 -34.30699920654296 L -36.57099914550781 -33.998001098632805 L -36.36399841308594 -33.71400070190429 L -36.12200164794922 -33.45700073242187 L -35.85100173950195 -33.23300170898437 L -35.553001403808594 -33.04399871826171 L -35.23400115966797 -32.89400100708007 L -34.89799880981445 -32.785999298095696 L -34.80363464355469 -32.76800155639648 L -34.551998138427734 -32.72000122070312 z" fill="none" stroke="rgb(255,0,0)" stroke-width="0.001mm" />
</svg>